<?xml version="1.0" encoding="UTF-8"?>
<svg xmlns="http://www.w3.org/2000/svg" xmlns:xlink="http://www.w3.org/1999/xlink" width="165px" height="40px" viewBox="0 0 165 40" version="1.1">
<g id="surface1">
<path style="fill-rule:evenodd;fill:rgb(0%,0%,0%);fill-opacity:1;stroke-width:1;stroke-linecap:butt;stroke-linejoin:miter;stroke:rgb(13.333333%,13.72549%,14.901961%);stroke-opacity:1;stroke-miterlimit:4;" d="M 310.921875 0.5 L 19.085938 0.5 C 18.476562 0.5 18.203125 0.5 17.867188 0.5 C 17.515625 0.5 17.203125 0.5 16.898438 0.507812 C 16.71875 0.507812 16.539062 0.507812 16.335938 0.507812 C 16.09375 0.515625 15.914062 0.515625 15.460938 0.523438 C 15.265625 0.523438 15.265625 0.523438 15.070312 0.53125 C 13.515625 0.570312 12.289062 0.664062 11.132812 0.875 C 9.8125 1.109375 8.617188 1.5 7.46875 2.078125 C 6.3125 2.671875 5.265625 3.4375 4.351562 4.351562 C 3.4375 5.25 2.671875 6.304688 2.085938 7.460938 C 1.5 8.601562 1.117188 9.796875 0.882812 11.132812 C 0.671875 12.289062 0.570312 13.5 0.53125 15.0625 C 0.523438 15.328125 0.515625 15.609375 0.515625 15.976562 C 0.507812 16.140625 0.507812 16.140625 0.507812 16.304688 C 0.507812 16.601562 0.5 16.734375 0.5 16.890625 C 0.5 17.976562 0.5 17.976562 0.5 19.070312 L 0.5 60.929688 C 0.5 61.804688 0.5 61.804688 0.5 62.679688 C 0.5 62.898438 0.5 62.898438 0.5 63.109375 C 0.5 63.273438 0.507812 63.40625 0.507812 63.703125 C 0.507812 63.867188 0.507812 63.867188 0.515625 64.03125 C 0.515625 64.398438 0.523438 64.671875 0.53125 64.945312 C 0.570312 66.507812 0.671875 67.71875 0.882812 68.882812 C 1.117188 70.210938 1.507812 71.414062 2.085938 72.546875 C 2.671875 73.703125 3.4375 74.757812 4.351562 75.648438 C 5.257812 76.5625 6.3125 77.328125 7.46875 77.914062 C 8.601562 78.5 9.789062 78.890625 11.132812 79.125 C 12.28125 79.335938 13.46875 79.429688 15.0625 79.476562 C 15.710938 79.492188 16.304688 79.492188 16.898438 79.492188 C 17.203125 79.5 17.515625 79.5 17.867188 79.5 C 18.203125 79.5 18.476562 79.5 19.085938 79.5 L 310.921875 79.5 C 311.46875 79.5 311.710938 79.5 312.007812 79.5 C 312.40625 79.5 312.757812 79.5 313.09375 79.492188 C 313.679688 79.492188 314.304688 79.492188 314.929688 79.476562 C 316.53125 79.429688 317.71875 79.335938 318.851562 79.132812 C 320.195312 78.890625 321.382812 78.5 322.539062 77.914062 C 323.6875 77.328125 324.742188 76.5625 325.648438 75.648438 C 326.554688 74.757812 327.320312 73.710938 327.921875 72.546875 C 328.5 71.398438 328.890625 70.195312 329.117188 68.875 C 329.320312 67.75 329.421875 66.617188 329.476562 64.953125 C 329.476562 64.664062 329.484375 64.367188 329.484375 64.03125 C 329.484375 63.78125 329.484375 63.578125 329.484375 63.109375 C 329.484375 62.960938 329.492188 62.820312 329.492188 62.671875 C 329.5 62.1875 329.5 61.804688 329.5 60.929688 L 329.5 19.070312 C 329.5 17.976562 329.5 17.5 329.484375 16.890625 C 329.484375 16.429688 329.484375 16.226562 329.484375 15.96875 C 329.484375 15.632812 329.476562 15.335938 329.476562 15.0625 C 329.421875 13.390625 329.320312 12.257812 329.109375 11.125 C 328.890625 9.8125 328.5 8.617188 327.921875 7.46875 C 327.320312 6.304688 326.554688 5.25 325.648438 4.34375 C 324.734375 3.4375 323.6875 2.671875 322.539062 2.085938 C 321.367188 1.492188 320.171875 1.101562 318.851562 0.875 C 317.703125 0.664062 316.484375 0.570312 314.929688 0.53125 C 314.757812 0.523438 314.757812 0.523438 314.578125 0.523438 C 314.296875 0.515625 314.171875 0.515625 314.007812 0.515625 C 313.65625 0.507812 313.367188 0.507812 313.09375 0.5 C 312.757812 0.5 312.414062 0.5 312.015625 0.5 C 311.710938 0.5 311.46875 0.5 310.921875 0.5 Z M 310.921875 0.5 " transform="matrix(0.5,0,0,0.5,0,0)"/>
<path style=" stroke:none;fill-rule:evenodd;fill:rgb(11.764706%,84.313725%,37.647059%);fill-opacity:1;" d="M 89.347656 18.667969 C 89.867188 18.976562 90.535156 18.804688 90.84375 18.28125 C 91.152344 17.761719 90.984375 17.085938 90.464844 16.777344 C 86.125 14.1875 79.265625 13.945312 75.136719 15.203125 C 74.558594 15.382812 74.234375 15.996094 74.410156 16.574219 C 74.585938 17.15625 75.195312 17.484375 75.773438 17.308594 C 79.367188 16.210938 85.582031 16.417969 89.347656 18.667969 Z M 89.222656 22 C 89.488281 21.566406 89.351562 21.003906 88.925781 20.738281 C 85.316406 18.511719 80.042969 17.882812 75.796875 19.175781 C 75.316406 19.324219 75.046875 19.835938 75.191406 20.320312 C 75.335938 20.804688 75.84375 21.078125 76.328125 20.929688 C 80.042969 19.796875 84.832031 20.359375 87.972656 22.300781 C 88.398438 22.5625 88.960938 22.429688 89.222656 22 Z M 87.792969 25.199219 C 88.003906 24.851562 87.894531 24.402344 87.554688 24.191406 C 84.472656 22.296875 80.65625 21.859375 76.203125 22.878906 C 75.808594 22.972656 75.566406 23.363281 75.65625 23.757812 C 75.746094 24.152344 76.136719 24.398438 76.527344 24.308594 C 80.59375 23.375 84.050781 23.753906 86.792969 25.441406 C 87.136719 25.652344 87.585938 25.542969 87.792969 25.199219 Z M 82.433594 8.25 C 88.890625 8.25 94.121094 13.511719 94.121094 20 C 94.121094 26.488281 88.890625 31.75 82.433594 31.75 C 75.980469 31.75 70.75 26.488281 70.75 20 C 70.75 13.511719 75.980469 8.25 82.433594 8.25 Z M 102.542969 19.097656 C 105 19.699219 106.003906 20.632812 106.003906 22.320312 C 106.003906 24.316406 104.484375 25.605469 102.136719 25.605469 C 100.476562 25.605469 98.941406 25.011719 97.691406 23.890625 C 97.636719 23.84375 97.632812 23.761719 97.675781 23.703125 L 98.78125 22.382812 C 98.804688 22.355469 98.835938 22.339844 98.871094 22.335938 C 98.90625 22.335938 98.941406 22.34375 98.96875 22.367188 C 100.042969 23.304688 101.003906 23.703125 102.183594 23.703125 C 103.242188 23.703125 103.902344 23.242188 103.902344 22.5 C 103.902344 21.828125 103.574219 21.453125 101.644531 21.007812 C 99.378906 20.457031 98.0625 19.742188 98.0625 17.726562 C 98.0625 15.84375 99.585938 14.53125 101.765625 14.53125 C 103.246094 14.53125 104.511719 14.972656 105.640625 15.878906 C 105.695312 15.921875 105.703125 16.003906 105.664062 16.058594 L 104.679688 17.457031 C 104.660156 17.484375 104.628906 17.503906 104.59375 17.511719 C 104.558594 17.515625 104.519531 17.507812 104.492188 17.488281 C 103.546875 16.777344 102.644531 16.433594 101.734375 16.433594 C 100.796875 16.433594 100.164062 16.886719 100.164062 17.5625 C 100.164062 18.273438 100.523438 18.613281 102.542969 19.097656 Z M 113.015625 21.359375 C 113.015625 19.957031 112.125 18.941406 110.894531 18.941406 C 109.660156 18.941406 108.726562 19.980469 108.726562 21.359375 C 108.726562 22.738281 109.660156 23.777344 110.894531 23.777344 C 112.144531 23.777344 113.015625 22.78125 113.015625 21.359375 Z M 111.3125 17.097656 C 113.203125 17.097656 115.117188 18.558594 115.117188 21.359375 C 115.117188 24.15625 113.203125 25.621094 111.3125 25.621094 C 110.296875 25.621094 109.460938 25.238281 108.773438 24.464844 L 108.773438 27.722656 C 108.773438 27.796875 108.714844 27.855469 108.640625 27.855469 L 106.835938 27.855469 C 106.761719 27.855469 106.703125 27.796875 106.703125 27.722656 L 106.703125 17.394531 C 106.703125 17.324219 106.761719 17.261719 106.835938 17.261719 L 108.640625 17.261719 C 108.714844 17.261719 108.773438 17.324219 108.773438 17.394531 L 108.773438 18.324219 C 109.460938 17.5 110.296875 17.097656 111.3125 17.097656 Z M 120.023438 23.792969 C 121.332031 23.792969 122.28125 22.78125 122.28125 21.390625 C 122.28125 20 121.296875 18.953125 119.992188 18.953125 C 118.695312 18.953125 117.753906 19.964844 117.753906 21.359375 C 117.753906 22.746094 118.726562 23.792969 120.023438 23.792969 Z M 120.023438 17.097656 C 122.449219 17.097656 124.351562 18.96875 124.351562 21.359375 C 124.351562 23.757812 122.4375 25.636719 119.992188 25.636719 C 117.574219 25.636719 115.679688 23.769531 115.679688 21.390625 C 115.679688 18.980469 117.589844 17.097656 120.023438 17.097656 Z M 129.550781 17.261719 C 129.621094 17.261719 129.679688 17.324219 129.679688 17.394531 L 129.679688 18.957031 C 129.679688 19.03125 129.621094 19.089844 129.550781 19.089844 L 127.5625 19.089844 L 127.5625 22.84375 C 127.5625 23.4375 127.820312 23.703125 128.398438 23.703125 C 128.777344 23.703125 129.113281 23.621094 129.460938 23.445312 C 129.5 23.425781 129.550781 23.425781 129.589844 23.453125 C 129.628906 23.476562 129.652344 23.519531 129.652344 23.566406 L 129.652344 25.050781 C 129.652344 25.097656 129.625 25.144531 129.585938 25.167969 C 129.078125 25.457031 128.539062 25.589844 127.894531 25.589844 C 126.300781 25.589844 125.492188 24.761719 125.492188 23.128906 L 125.492188 19.089844 L 124.621094 19.089844 C 124.550781 19.089844 124.492188 19.03125 124.492188 18.957031 L 124.492188 17.394531 C 124.492188 17.324219 124.550781 17.261719 124.621094 17.261719 L 125.492188 17.261719 L 125.492188 15.21875 C 125.492188 15.144531 125.550781 15.085938 125.625 15.085938 L 127.429688 15.085938 C 127.503906 15.085938 127.5625 15.144531 127.5625 15.21875 L 127.5625 17.261719 Z M 136.476562 17.269531 L 139.5625 17.269531 C 139.617188 17.269531 139.667969 17.304688 139.683594 17.355469 L 141.796875 22.894531 L 143.722656 17.359375 C 143.742188 17.304688 143.792969 17.269531 143.847656 17.269531 L 145.726562 17.269531 C 145.773438 17.269531 145.8125 17.292969 145.835938 17.328125 C 145.863281 17.363281 145.867188 17.410156 145.851562 17.453125 L 142.714844 25.59375 C 142.066406 27.277344 141.328125 27.902344 139.996094 27.902344 C 139.28125 27.902344 138.703125 27.753906 138.066406 27.40625 C 138.003906 27.371094 137.980469 27.296875 138.007812 27.234375 L 138.621094 25.882812 C 138.636719 25.847656 138.664062 25.824219 138.699219 25.808594 C 138.734375 25.800781 138.773438 25.800781 138.804688 25.820312 C 139.148438 26.007812 139.484375 26.105469 139.800781 26.105469 C 140.195312 26.105469 140.484375 25.972656 140.777344 25.320312 L 138.191406 19.089844 L 136.503906 19.089844 L 136.503906 25.320312 C 136.503906 25.394531 136.445312 25.453125 136.375 25.453125 L 134.566406 25.453125 C 134.492188 25.453125 134.433594 25.394531 134.433594 25.320312 L 134.433594 19.089844 L 133.566406 19.089844 C 133.496094 19.089844 133.433594 19.03125 133.433594 18.957031 L 133.433594 17.386719 C 133.433594 17.316406 133.496094 17.253906 133.566406 17.253906 L 134.433594 17.253906 L 134.433594 16.871094 C 134.433594 15.082031 135.316406 14.140625 136.984375 14.140625 C 137.671875 14.140625 138.128906 14.25 138.488281 14.355469 C 138.542969 14.371094 138.582031 14.425781 138.582031 14.484375 L 138.582031 16.015625 C 138.582031 16.058594 138.5625 16.097656 138.527344 16.121094 C 138.492188 16.148438 138.449219 16.152344 138.40625 16.140625 C 138.066406 16.027344 137.765625 15.953125 137.390625 15.953125 C 136.757812 15.953125 136.476562 16.28125 136.476562 17.019531 Z M 132.460938 17.261719 C 132.535156 17.261719 132.59375 17.324219 132.59375 17.394531 L 132.59375 25.320312 C 132.59375 25.394531 132.535156 25.453125 132.460938 25.453125 L 130.652344 25.453125 C 130.582031 25.453125 130.523438 25.394531 130.523438 25.320312 L 130.523438 17.394531 C 130.523438 17.324219 130.582031 17.261719 130.652344 17.261719 Z M 131.566406 13.652344 C 132.28125 13.652344 132.863281 14.238281 132.863281 14.957031 C 132.863281 15.675781 132.28125 16.257812 131.566406 16.257812 C 130.851562 16.257812 130.269531 15.675781 130.269531 14.957031 C 130.269531 14.238281 130.851562 13.652344 131.566406 13.652344 Z M 147.46875 18.050781 L 147.136719 18.050781 L 147.136719 18.476562 L 147.46875 18.476562 C 147.632812 18.476562 147.730469 18.394531 147.730469 18.261719 C 147.730469 18.125 147.632812 18.050781 147.46875 18.050781 Z M 147.679688 18.65625 L 148.042969 19.164062 L 147.738281 19.164062 L 147.414062 18.699219 L 147.136719 18.699219 L 147.136719 19.164062 L 146.882812 19.164062 L 146.882812 17.820312 L 147.476562 17.820312 C 147.789062 17.820312 147.992188 17.980469 147.992188 18.25 C 147.992188 18.46875 147.863281 18.601562 147.679688 18.65625 Z M 147.398438 17.375 C 146.75 17.375 146.253906 17.894531 146.253906 18.53125 C 146.253906 19.167969 146.746094 19.683594 147.394531 19.683594 C 148.042969 19.683594 148.539062 19.164062 148.539062 18.523438 C 148.539062 17.886719 148.046875 17.375 147.398438 17.375 Z M 147.394531 19.8125 C 146.679688 19.8125 146.121094 19.234375 146.121094 18.53125 C 146.121094 17.832031 146.683594 17.246094 147.398438 17.246094 C 148.113281 17.246094 148.671875 17.824219 148.671875 18.523438 C 148.671875 19.226562 148.109375 19.8125 147.394531 19.8125 Z M 147.394531 19.8125 "/>
<path style=" stroke:none;fill-rule:evenodd;fill:rgb(100%,100%,100%);fill-opacity:1;" d="M 19.609375 22.902344 L 15.75 22.902344 L 15.75 16.878906 L 16.921875 16.878906 L 16.921875 21.78125 L 19.609375 21.78125 Z M 22.40625 22.902344 L 21.214844 22.902344 L 21.214844 16.878906 L 22.40625 16.878906 Z M 28.636719 18.3125 L 27.582031 18.636719 C 27.523438 18.304688 27.253906 17.785156 26.488281 17.785156 C 25.917969 17.785156 25.542969 18.152344 25.542969 18.550781 C 25.542969 18.882812 25.757812 19.148438 26.199219 19.230469 L 27.039062 19.394531 C 28.136719 19.605469 28.722656 20.320312 28.722656 21.171875 C 28.722656 22.097656 27.949219 23.03125 26.546875 23.03125 C 24.949219 23.03125 24.242188 22.003906 24.148438 21.144531 L 25.238281 20.855469 C 25.289062 21.449219 25.707031 21.984375 26.554688 21.984375 C 27.183594 21.984375 27.53125 21.671875 27.53125 21.246094 C 27.53125 20.898438 27.269531 20.625 26.800781 20.53125 L 25.960938 20.363281 C 25 20.167969 24.378906 19.546875 24.378906 18.636719 C 24.378906 17.566406 25.339844 16.75 26.480469 16.75 C 27.941406 16.75 28.5 17.632812 28.636719 18.3125 Z M 34.988281 17.992188 L 33.085938 17.992188 L 33.085938 22.902344 L 31.902344 22.902344 L 31.902344 17.992188 L 30 17.992188 L 30 16.878906 L 34.988281 16.878906 Z M 40.371094 22.902344 L 36.59375 22.902344 L 36.59375 16.878906 L 40.371094 16.878906 L 40.371094 17.984375 L 37.769531 17.984375 L 37.769531 19.359375 L 40.125 19.359375 L 40.125 20.40625 L 37.769531 20.40625 L 37.769531 21.800781 L 40.371094 21.800781 Z M 47.417969 22.902344 L 46.183594 22.902344 L 43.449219 18.628906 L 43.449219 22.902344 L 42.273438 22.902344 L 42.273438 16.878906 L 43.738281 16.878906 L 46.242188 20.863281 L 46.242188 16.878906 L 47.417969 16.878906 Z M 53.105469 19.886719 C 53.105469 21.246094 54.058594 21.890625 54.984375 21.890625 C 55.917969 21.890625 56.871094 21.246094 56.871094 19.886719 C 56.871094 18.527344 55.917969 17.878906 54.984375 17.878906 C 54.058594 17.878906 53.105469 18.527344 53.105469 19.886719 Z M 51.890625 19.894531 C 51.890625 17.949219 53.351562 16.75 54.984375 16.75 C 56.625 16.75 58.085938 17.949219 58.085938 19.894531 C 58.085938 21.832031 56.625 23.03125 54.984375 23.03125 C 53.351562 23.03125 51.890625 21.832031 51.890625 19.894531 Z M 65.050781 22.902344 L 63.816406 22.902344 L 61.078125 18.628906 L 61.078125 22.902344 L 59.90625 22.902344 L 59.90625 16.878906 L 61.367188 16.878906 L 63.875 20.863281 L 63.875 16.878906 L 65.050781 16.878906 Z M 65.050781 22.902344 "/>
</g>
</svg>
